<?xml version="1.0" encoding="UTF-8" standalone="no" ?>
<!DOCTYPE svg PUBLIC "-//W3C//DTD SVG 1.1//EN" "http://www.w3.org/Graphics/SVG/1.1/DTD/svg11.dtd">
<svg xmlns="http://www.w3.org/2000/svg" xmlns:xlink="http://www.w3.org/1999/xlink" version="1.1" width="1280" height="1024" viewBox="0 0 1280 1024" xml:space="preserve">
<desc>Created with Fabric.js 5.3.0</desc>
<defs>
</defs>
<g transform="matrix(1 0 0 1 640 512)" id="background-logo"  >
<rect style="stroke: none; stroke-width: 0; stroke-dasharray: none; stroke-linecap: butt; stroke-dashoffset: 0; stroke-linejoin: miter; stroke-miterlimit: 4; fill: rgb(113,64,9); fill-opacity: 0; fill-rule: nonzero; opacity: 1;"  paint-order="stroke"  x="-640" y="-512" rx="0" ry="0" width="1280" height="1024" />
</g>
<g transform="matrix(1.9211538461538462 0 0 1.9211538461538462 640 402.5722464770633)" id="logo-logo"  >
<g style=""  paint-order="stroke"   >
		<g transform="matrix(1.1349242810559872 0 0 -1.1349242810559872 0 0)"  >
<linearGradient id="SVGID_362411" gradientUnits="userSpaceOnUse" gradientTransform="matrix(1 0 0 1 -178.68702024423132 -99.97549470759316)"  x1="0" y1="0" x2="0" y2="172">
<stop offset="0%" style="stop-color:rgb(250,217,97);stop-opacity: 1"/>
<stop offset="100%" style="stop-color:rgb(247,107,28);stop-opacity: 1"/>
</linearGradient>
<path style="stroke: none; stroke-width: 1; stroke-dasharray: none; stroke-linecap: butt; stroke-dashoffset: 0; stroke-linejoin: miter; stroke-miterlimit: 4; fill: url(#SVGID_362411); fill-rule: nonzero; opacity: 1;"  paint-order="stroke"  transform=" translate(86.36017919159838, 13.755247353796591)" d="M 0 0 C -2.774 -0.147 -5.078 -2.362 -5.325 -5.129 C -5.556 -7.710999999999999 -4.050000000000001 -9.971 -1.8450000000000002 -10.879999999999999 L -1.8450000000000002 -14.645 L -13.482000000000001 -14.645 L -13.482000000000001 -4.792 L -21 -4.792 C -24.734 -4.792 -27.964 -2.1159999999999997 -28.573 1.5670000000000002 C -28.789 2.866 -29.052 4.148 -29.362000000000002 5.413 C -30.253 9.048 -28.356 12.791 -24.917 14.267 L -21.764000000000003 15.62 L -17.738000000000003 8.477999999999998 L -3.687000000000003 14.355999999999998 C -2.502000000000003 13.174999999999997 -0.7980000000000032 12.514999999999999 1.0539999999999967 12.750999999999998 C 3.604999999999997 13.076999999999998 5.646999999999997 15.158999999999997 5.9309999999999965 17.715999999999998 C 6.307999999999996 21.128999999999998 3.6459999999999964 24.019 0.3089999999999966 24.019 C -2.8150000000000035 24.019 -5.349000000000004 21.485999999999997 -5.349000000000004 18.360999999999997 C -5.349000000000004 18.350999999999996 -5.347000000000004 18.339999999999996 -5.347000000000004 18.33 L -15.867000000000004 13.928999999999998 L -19.910000000000004 21.102999999999998 L -26.633000000000003 18.217 C -30.1 16.729 -34.107 17.994 -36.155 21.163 C -36.588 21.831 -37.034 22.489 -37.496 23.136 C -39.694 26.217 -39.393 30.421 -36.716 33.097 L -34.311 35.503 L -28.091 30.229 L -15.843000000000002 42.477 L -22.451 47.361999999999995 L -16.375 53.43899999999999 L -12.893 50.50999999999999 C -13.21 49.60399999999999 -13.317 48.599999999999994 -13.105 47.54299999999999 C -12.618 45.11599999999999 -10.566 43.239999999999995 -8.102 43.00999999999999 C -4.493 42.67199999999999 -1.5 45.727999999999994 -1.9430000000000005 49.35499999999999 C -2.2400000000000007 51.78199999999999 -4.132000000000001 53.77399999999999 -6.538 54.206999999999994 C -7.804 54.434999999999995 -8.998000000000001 54.22599999999999 -10.025 53.72599999999999 L -16.626 59.27799999999999 L -29.032000000000004 46.870999999999995 L -22.424000000000003 41.986 L -28.330000000000002 36.08 L -34.551 41.354 L -39.762 36.141999999999996 C -42.409 33.495 -46.592 33.11899999999999 -49.635 35.29899999999999 C -50.696 36.059999999999995 -51.788 36.78199999999999 -52.907 37.46199999999999 C -56.095 39.40099999999999 -57.382999999999996 43.38499999999999 -55.998 46.84999999999999 L -54.903 49.591999999999985 L -47.976 45.80999999999999 L -43.175 56.02999999999999 C -43.083999999999996 56.024999999999984 -42.994 56.015999999999984 -42.901999999999994 56.015999999999984 C -39.56499999999999 56.015999999999984 -36.90299999999999 58.90399999999998 -37.279999999999994 62.316999999999986 C -37.56699999999999 64.91199999999999 -39.663999999999994 67.00899999999999 -42.257999999999996 67.29499999999999 C -45.67099999999999 67.67199999999998 -48.559999999999995 65.00999999999999 -48.559999999999995 61.67299999999999 C -48.559999999999995 60.201999999999984 -47.992999999999995 58.865999999999985 -47.071999999999996 57.859999999999985 L -49.928 51.78199999999998 L -57.102 55.698999999999984 L -59.992 48.46299999999999 C -61.396 44.94999999999999 -65.137 43.018999999999984 -68.835 43.816999999999986 C -69.61 43.98399999999999 -70.393 44.133999999999986 -71.17999999999999 44.26699999999999 C -74.904 44.89199999999999 -77.651 48.08099999999999 -77.651 51.856999999999985 L -77.651 55.06899999999999 L -74.816 55.06899999999999 C -73.836 52.96899999999999 -71.61 51.566999999999986 -69.084 51.83099999999999 C -66.477 52.10399999999999 -64.36 54.203999999999986 -64.071 56.80999999999999 C -63.693 60.22399999999999 -66.355 63.11399999999999 -69.693 63.11399999999999 C -72.143 63.11399999999999 -74.223 61.55399999999999 -75.00999999999999 59.37599999999999 L -81.958 59.37599999999999 L -81.958 51.85799999999999 C -81.958 48.12499999999999 -84.634 44.89499999999999 -88.317 44.28499999999999 C -89.616 44.069999999999986 -90.898 43.80699999999999 -92.163 43.49699999999999 C -95.798 42.605999999999995 -99.541 44.501999999999995 -101.017 47.940999999999995 L -102.271 50.86299999999999 L -93.808 54.35199999999999 L -102.49700000000001 72.46499999999999 L -109.33500000000001 70.07499999999999 C -110.525 71.41099999999999 -112.33300000000001 72.18499999999999 -114.31400000000001 71.92699999999999 C -116.86000000000001 71.595 -118.894 69.52099999999999 -119.179 66.97 C -119.56 63.554 -116.897 60.661 -113.558 60.661 C -110.53800000000001 60.661 -108.07700000000001 63.03 -107.91600000000001 66.009 L -104.71400000000001 67.128 L -99.662 56.597 L -107.95100000000001 53.18 L -104.96700000000001 46.227 C -103.47900000000001 42.759 -104.74400000000001 38.751999999999995 -107.91300000000001 36.70399999999999 C -108.58100000000002 36.270999999999994 -109.239 35.82399999999999 -109.88600000000001 35.36299999999999 C -112.96700000000001 33.16499999999999 -117.171 33.465999999999994 -119.84700000000001 36.142999999999994 L -124.361 40.657 C -124.02300000000001 41.467999999999996 -123.866 42.373999999999995 -123.947 43.324999999999996 C -124.182 46.086 -126.465 48.312999999999995 -129.231 48.48 C -132.634 48.686 -135.43699999999998 45.882 -135.23 42.479 C -135.06199999999998 39.714 -132.83499999999998 37.432 -130.07399999999998 37.197 C -129.124 37.116 -128.218 37.272000000000006 -127.40599999999998 37.611000000000004 L -122.89199999999998 33.097 C -120.24499999999998 30.450000000000003 -119.86899999999999 26.267000000000003 -122.04899999999998 23.224000000000004 C -122.80999999999997 22.163000000000004 -123.53199999999998 21.071000000000005 -124.21199999999997 19.951000000000004 C -126.15099999999998 16.763000000000005 -130.13599999999997 15.476000000000004 -133.60099999999997 16.860000000000003 L -136.45799999999997 18.001000000000005 L -132.90599999999998 25.405000000000005 L -154.48 35.017 L -157.243 27.602000000000004 C -157.255 27.602000000000004 -157.267 27.604000000000003 -157.279 27.604000000000003 C -160.61599999999999 27.604000000000003 -163.278 24.715000000000003 -162.901 21.302000000000003 C -162.614 18.708000000000002 -160.51700000000002 16.611000000000004 -157.923 16.325000000000003 C -154.51 15.948000000000002 -151.622 18.610000000000003 -151.622 21.946000000000005 C -151.622 23.503000000000004 -152.251 24.912000000000006 -153.268 25.935000000000006 L -152.045 29.217000000000006 L -138.70499999999998 23.273000000000007 L -142.33299999999997 15.710000000000008 L -135.21299999999997 12.867000000000008 C -131.69999999999996 11.464000000000008 -129.76899999999998 7.722000000000008 -130.56699999999998 4.024000000000008 C -130.73399999999998 3.248000000000008 -130.884 2.466000000000008 -131.01699999999997 1.6790000000000078 C -131.64199999999997 -2.0449999999999924 -134.83099999999996 -4.791999999999993 -138.60699999999997 -4.791999999999993 L -141.81899999999996 -4.791999999999993 L -141.81899999999996 4.887000000000008 L -160.94699999999995 4.887000000000008 L -160.94699999999995 -10.322999999999993 L -167.68699999999995 -10.322999999999993 C -168.53299999999996 -7.879999999999994 -170.99999999999994 -6.193999999999994 -173.80399999999995 -6.565999999999994 C -176.34299999999993 -6.902999999999993 -178.36899999999994 -8.978999999999994 -178.65099999999995 -11.523999999999994 C -179.02999999999994 -14.938999999999993 -176.36799999999997 -17.829999999999995 -173.02999999999994 -17.829999999999995 C -170.78799999999995 -17.829999999999995 -168.85499999999993 -16.520999999999994 -167.93999999999994 -14.629999999999995 L -156.64099999999993 -14.629999999999995 L -156.64099999999993 0.58 L -146.12599999999992 0.58 L -146.12599999999992 -9.099 L -138.60899999999992 -9.099 C -134.87499999999991 -9.099 -131.64499999999992 -11.775 -131.0349999999999 -15.459 C -130.8199999999999 -16.758 -130.5569999999999 -18.04 -130.2469999999999 -19.305 C -129.3559999999999 -22.939 -131.2519999999999 -26.682 -134.6909999999999 -28.158 L -141.5329999999999 -31.094 L -138.5979999999999 -38.634 L -154.8819999999999 -44.854 C -156.0309999999999 -43.707 -157.6699999999999 -43.051 -159.45799999999988 -43.229 C -162.1969999999999 -43.5 -164.37299999999988 -45.78 -164.52899999999988 -48.528 C -164.71399999999988 -51.802 -162.1139999999999 -54.515 -158.87999999999988 -54.515 C -155.7559999999999 -54.515 -153.22299999999987 -51.981 -153.22299999999987 -48.857 C -153.22299999999987 -48.849 -153.22399999999988 -48.841 -153.22399999999988 -48.832 L -133.01299999999986 -41.11 L -136.00999999999988 -33.41 L -132.9769999999999 -32.108 C -129.50999999999988 -30.620999999999995 -125.5019999999999 -31.885999999999996 -123.4539999999999 -35.053999999999995 C -123.02099999999989 -35.72299999999999 -122.5739999999999 -36.379999999999995 -122.1129999999999 -37.026999999999994 C -119.9149999999999 -40.108 -120.2159999999999 -44.312999999999995 -122.8929999999999 -46.98799999999999 L -131.0669999999999 -55.163 C -131.8779999999999 -54.824 -132.78499999999988 -54.666999999999994 -133.7359999999999 -54.748999999999995 C -136.4969999999999 -54.983999999999995 -138.7229999999999 -57.267999999999994 -138.8899999999999 -60.032999999999994 C -139.0959999999999 -63.43599999999999 -136.2929999999999 -66.238 -132.8899999999999 -66.03099999999999 C -130.12499999999991 -65.86299999999999 -127.8419999999999 -63.63699999999999 -127.6069999999999 -60.876999999999995 C -127.5259999999999 -59.925999999999995 -127.6829999999999 -59.019999999999996 -128.0209999999999 -58.208 L -119.8469999999999 -50.033 C -117.19999999999989 -47.387 -113.0169999999999 -47.011 -109.97399999999989 -49.19 C -108.9129999999999 -49.951 -107.82099999999988 -50.672999999999995 -106.70199999999988 -51.354 C -103.51399999999988 -53.292 -102.22599999999989 -57.275999999999996 -103.60999999999989 -60.742 L -104.35599999999988 -62.61 L -112.70599999999988 -58.828 L -122.11899999999987 -77.97800000000001 L -111.93799999999987 -82.67600000000002 L -114.62899999999988 -88.67000000000002 C -114.68799999999987 -88.66800000000002 -114.74599999999988 -88.66100000000002 -114.80499999999988 -88.66100000000002 C -118.14199999999988 -88.66100000000002 -120.80399999999987 -91.55000000000001 -120.42699999999988 -94.96300000000002 C -120.14099999999988 -97.55700000000002 -118.04299999999988 -99.65300000000002 -115.44899999999988 -99.94000000000003 C -112.03599999999989 -100.31600000000003 -109.14799999999988 -97.65500000000003 -109.14799999999988 -94.31800000000003 C -109.14799999999988 -92.81200000000003 -109.73999999999988 -91.44600000000003 -110.70099999999988 -90.43300000000002 L -106.26399999999988 -80.55200000000002 L -116.30699999999987 -75.91700000000002 L -110.68199999999987 -64.47300000000001 L -102.02799999999988 -68.39200000000001 L -99.61699999999988 -62.35400000000001 C -98.21299999999988 -58.84200000000001 -94.47199999999988 -56.91000000000001 -90.77299999999988 -57.70800000000001 C -89.99799999999988 -57.87600000000001 -89.21599999999988 -58.02500000000001 -88.42899999999989 -58.158000000000015 C -84.7039999999999 -58.783000000000015 -81.95799999999988 -61.97300000000001 -81.95799999999988 -65.74900000000001 L -81.95799999999988 -73.26800000000001 L -72.62399999999988 -73.26800000000001 L -72.62399999999988 -80.53100000000002 C -74.82899999999988 -81.44000000000003 -76.33599999999988 -83.70100000000002 -76.10399999999989 -86.28200000000002 C -75.85699999999989 -89.05000000000003 -73.55399999999989 -91.26400000000002 -70.77999999999989 -91.41100000000003 C -67.51499999999989 -91.58500000000004 -64.81299999999989 -88.98900000000003 -64.81299999999989 -85.76300000000003 C -64.81299999999989 -83.40000000000003 -66.26199999999989 -81.37900000000003 -68.3169999999999 -80.53100000000003 L -68.3169999999999 -68.96100000000004 L -77.6509999999999 -68.96100000000004 L -77.6509999999999 -65.75000000000004 C -77.6509999999999 -62.017000000000046 -74.9749999999999 -58.786000000000044 -71.2909999999999 -58.17700000000004 C -69.99199999999989 -57.96200000000004 -68.7099999999999 -57.69800000000004 -67.4449999999999 -57.389000000000046 C -63.81099999999989 -56.49700000000004 -60.066999999999894 -58.39400000000005 -58.59199999999989 -61.83300000000005 L -55.56199999999989 -68.89400000000005 L -47.79299999999989 -64.85300000000005 C -46.748999999999896 -65.71300000000005 -45.391999999999896 -66.20600000000005 -43.916999999999895 -66.13500000000005 C -41.120999999999896 -65.99900000000005 -38.79599999999989 -63.76300000000005 -38.5619999999999 -60.97300000000005 C -38.2739999999999 -57.54200000000005 -41.0499999999999 -54.68400000000005 -44.4519999999999 -54.83200000000005 C -46.8169999999999 -54.93600000000005 -48.873999999999896 -56.56800000000005 -49.5959999999999 -58.82300000000005 C -49.843999999999895 -59.59900000000005 -49.8969999999999 -60.34600000000005 -49.8269999999999 -61.05600000000005 L -53.4339999999999 -62.932000000000045 L -54.6409999999999 -60.118000000000045 C -56.1289999999999 -56.65000000000005 -54.8639999999999 -52.64400000000005 -51.6959999999999 -50.59500000000004 C -51.0269999999999 -50.16200000000004 -50.3689999999999 -49.716000000000044 -49.7229999999999 -49.25400000000004 C -46.641999999999896 -47.05600000000004 -42.4379999999999 -47.35700000000004 -39.760999999999896 -50.03400000000004 L -34.449999999999896 -55.34600000000004 L -27.842999999999897 -48.90500000000004 L -19.453999999999898 -57.80300000000004 L -27.526999999999898 -65.01800000000004 L -18.8539999999999 -74.80900000000004 C -19.3609999999999 -75.84100000000004 -19.5729999999999 -77.04400000000004 -19.3429999999999 -78.31600000000005 C -18.9069999999999 -80.72900000000004 -16.9049999999999 -82.62000000000005 -14.4719999999999 -82.90900000000005 C -10.8439999999999 -83.34100000000005 -7.7939999999999 -80.33600000000006 -8.1479999999999 -76.72200000000005 C -8.389999999999901 -74.26500000000006 -10.2669999999999 -72.22400000000005 -12.6879999999999 -71.74300000000005 C -13.7359999999999 -71.53500000000005 -14.7319999999999 -71.64100000000005 -15.631999999999898 -71.95200000000006 L -21.4609999999999 -65.37100000000005 L -13.2869999999999 -58.06600000000005 L -27.7139999999999 -42.76600000000005 L -34.4109999999999 -49.29400000000005 L -36.7169999999999 -46.98800000000005 C -39.3629999999999 -44.34100000000005 -39.7389999999999 -40.15800000000005 -37.5599999999999 -37.11500000000005 C -36.7989999999999 -36.05400000000005 -36.076999999999906 -34.96200000000005 -35.3959999999999 -33.84300000000005 C -33.4579999999999 -30.655000000000054 -29.4739999999999 -29.367000000000054 -26.007999999999903 -30.752000000000052 L -25.867999999999903 -30.808000000000053 C -25.832999999999902 -34.11900000000006 -22.954999999999902 -36.75000000000006 -19.556999999999903 -36.367000000000054 C -16.9689999999999 -36.07600000000006 -14.879999999999903 -33.983000000000054 -14.592999999999902 -31.395000000000053 C -14.212999999999901 -27.980000000000054 -16.8759999999999 -25.090000000000053 -20.213999999999903 -25.090000000000053 C -21.8059999999999 -25.090000000000053 -23.2419999999999 -25.750000000000053 -24.269999999999904 -26.809000000000054 L -24.395999999999905 -26.758000000000056 C -27.907999999999905 -25.354000000000056 -29.839999999999904 -21.613000000000056 -29.041999999999906 -17.915000000000056 C -28.873999999999906 -17.140000000000057 -28.724999999999905 -16.358000000000057 -28.591999999999906 -15.570000000000055 C -27.966999999999906 -11.846000000000055 -24.776999999999905 -9.099000000000055 -21.001999999999907 -9.099000000000055 L -17.788999999999906 -9.099000000000055 L -17.788999999999906 -18.951000000000057 L 2.462 -18.951000000000057 L 2.462 -10.880000000000058 C 4.518000000000001 -10.033000000000058 5.966 -8.011000000000058 5.966 -5.649000000000058 C 5.966 -2.422 3.265 0.173 0 0" stroke-linecap="round" />
</g>
</g>
</g>
<g transform="matrix(1.9211538461538462 0 0 1.9211538461538462 652.5253791882332 650.3404583254386)" id="text-logo"  >
<g style=""  paint-order="stroke"   >
		<g transform="matrix(1 0 0 1 5.684342e-14 0)" id="text-logo-path-0"  >
<linearGradient id="SVGID_362419" gradientUnits="userSpaceOnUse" gradientTransform="matrix(1 0 0 1 2.740000000000009 -36.15)"  x1="-2.7247558593750227" y1="-12.20523906249997" x2="-2.7247558593750227" y2="49.79476093750003">
<stop offset="0%" style="stop-color:rgb(250,217,97);stop-opacity: 1"/>
<stop offset="100%" style="stop-color:rgb(247,107,28);stop-opacity: 1"/>
</linearGradient>
<path style="stroke: none; stroke-width: 0; stroke-dasharray: none; stroke-linecap: butt; stroke-dashoffset: 0; stroke-linejoin: miter; stroke-miterlimit: 4; fill: url(#SVGID_362419); fill-rule: nonzero; opacity: 1;"  paint-order="stroke"  transform=" translate(-208.225, 17.805)" d="M 2.74 0 L 16.89 0 C 21.43 0 23.71 -2.42 23.71 -7.25 L 23.71 -28.33 C 23.71 -33.17 21.43 -35.58 16.89 -35.58 L 2.74 -35.58 Z M 14.96 -5.29 L 10.45 -5.29 L 10.45 -30.35 L 14.96 -30.35 C 15.52 -30.35 16.01 -29.84 16.01 -29.27 L 16.01 -6.39 C 16.01 -5.83 15.52 -5.29 14.96 -5.29 Z M 44.11 -29.03 L 49.89 -29.03 L 49.89 0 L 57.57 0 L 57.57 -29.03 L 63.34 -29.03 L 63.34 -35.58 L 44.11 -35.58 Z M 83.58 0 L 99.83 0 L 99.83 -6.39 L 91.29 -6.39 L 91.29 -14.9 L 99.26 -14.9 L 99.26 -20.95 L 91.29 -20.95 L 91.29 -29.33 L 99.83 -29.33 L 99.83 -35.58 L 83.58 -35.58 Z M 120.98 -6.71 C 120.98 -1.88 123.26 0.54 127.8 0.54 L 134.3 0.54 C 138.84 0.54 141.12 -1.88 141.12 -6.71 L 141.12 -14.37 C 141.12 -19.12 138.84 -21.54 134.3 -21.62 L 129.36 -21.62 C 128.74 -21.62 128.31 -22.16 128.31 -22.72 L 128.31 -29.03 C 128.31 -29.65 128.79 -30.13 129.36 -30.13 L 132.36 -30.13 C 132.98 -30.13 133.41 -29.59 133.41 -29.03 L 133.41 -26.24 L 140.74 -26.24 L 140.74 -28.87 C 140.74 -33.73 138.46 -36.15 133.92 -36.15 L 127.8 -36.15 C 123.26 -36.12 120.98 -33.7 120.98 -28.87 L 120.98 -21.78 C 120.98 -16.95 123.26 -14.53 127.8 -14.53 L 132.77 -14.53 C 133.33 -14.53 133.81 -13.99 133.81 -13.43 L 133.81 -6.45 C 133.81 -5.83 133.33 -5.34 132.77 -5.34 L 129.36 -5.34 C 128.74 -5.34 128.31 -5.88 128.31 -6.45 L 128.31 -10.39 L 120.98 -10.39 Z M 190.62 -28.87 L 190.62 0 L 198.33 0 L 198.33 -29.54 C 198.33 -30.1 198.81 -30.64 199.37 -30.64 L 202.35 -30.64 C 202.92 -30.64 203.38 -30.1 203.38 -29.54 L 203.38 0 L 211.08 0 L 211.08 -29.54 C 211.08 -30.1 211.57 -30.64 212.13 -30.64 L 215.11 -30.64 C 215.68 -30.64 216.16 -30.1 216.16 -29.54 L 216.16 0 L 223.84 0 L 223.84 -28.87 C 223.84 -33.73 221.56 -36.15 217.02 -36.15 L 212.96 -36.15 C 210.2 -36.12 208.29 -35.23 207.24 -33.49 C 206.11 -35.26 204.21 -36.15 201.52 -36.15 L 197.44 -36.15 C 192.9 -36.12 190.62 -33.7 190.62 -28.87 Z M 245.82 -28.87 L 245.82 0 L 253.53 0 L 253.53 -11.92 L 259.09 -11.92 L 259.09 0 L 266.8 0 L 266.8 -28.87 C 266.8 -33.73 264.51 -36.15 259.98 -36.15 L 252.64 -36.15 C 248.11 -36.12 245.82 -33.7 245.82 -28.87 Z M 253.53 -17.89 L 253.53 -29.81 C 253.53 -30.37 254.01 -30.91 254.58 -30.91 L 258.04 -30.91 C 258.61 -30.91 259.09 -30.37 259.09 -29.81 L 259.09 -17.89 Z M 289.21 0 L 296.92 0 L 296.92 -35.58 L 289.21 -35.58 Z M 319.33 0 L 335.44 0 L 335.44 -6.5 L 327.04 -6.5 L 327.04 -35.58 L 319.33 -35.58 Z M 355.79 0 L 372.04 0 L 372.04 -6.39 L 363.5 -6.39 L 363.5 -14.9 L 371.47 -14.9 L 371.47 -20.95 L 363.5 -20.95 L 363.5 -29.33 L 372.04 -29.33 L 372.04 -35.58 L 355.79 -35.58 Z M 393.19 0 L 400.9 0 L 400.9 -14.58 L 404.58 -14.58 C 405.27 -14.58 405.62 -14.21 405.62 -13.48 L 405.62 0 L 413.33 0 L 413.33 -14.07 C 413.33 -16.41 412.42 -17.91 410.59 -18.58 C 412.66 -19.39 413.71 -21.27 413.71 -24.2 L 413.71 -28.33 C 413.71 -33.17 411.42 -35.58 406.89 -35.58 L 393.19 -35.58 Z M 404.98 -19.95 L 400.9 -19.95 L 400.9 -30.35 L 404.98 -30.35 C 405.54 -30.35 406.03 -29.84 406.03 -29.27 L 406.03 -21.05 C 406.03 -20.49 405.54 -19.95 404.98 -19.95 Z" stroke-linecap="round" />
</g>
</g>
</g>
<g transform="matrix(1.2687319259687682 0 0 1.2687319259687682 652.0373048004627 385.80691512434936)" id="shape-6283314b-f208-4b86-9081-b725730eff9a"  >
<g style=""  paint-order="stroke"   >
		<g transform="matrix(1 0 0 1 0 0)" id="Layer_1"  >
<path style="stroke: none; stroke-width: 1; stroke-dasharray: none; stroke-linecap: butt; stroke-dashoffset: 0; stroke-linejoin: miter; stroke-miterlimit: 4; fill: rgb(255,255,255); fill-rule: nonzero; opacity: 1;"  paint-order="stroke"  transform=" translate(-50, -37)" d="M 100 62 C 100 64.2 99.4 66.2 98.4 68 L 66.8 32.7 L 98.1 5.4 C 99.3 7.300000000000001 100 9.600000000000001 100 12 L 100 62 L 100 62 z M 50 39.1 L 93.5 1.1000000000000014 C 91.7 0.10000000000000142 89.7 -0.49999999999999867 87.5 -0.49999999999999867 L 12.5 -0.49999999999999867 C 10.3 -0.49999999999999867 8.3 0.10000000000000131 6.5 1.1000000000000014 L 50 39.1 z M 62.1 36.8 L 52 45.599999999999994 C 51.4 46.099999999999994 50.7 46.39999999999999 49.9 46.39999999999999 C 49.199999999999996 46.39999999999999 48.4 46.099999999999994 47.8 45.599999999999994 L 37.699999999999996 36.8 L 5.699999999999996 72.6 C 7.599999999999996 73.8 9.899999999999995 74.5 12.299999999999995 74.5 L 87.3 74.5 C 89.7 74.5 92 73.8 93.89999999999999 72.6 L 62.1 36.8 z M 1.9 5.4 C 0.7 7.3 0 9.6 0 12 L 0 62 C 0 64.2 0.6 66.2 1.6 68 L 33.2 32.7 L 1.9 5.4 z" stroke-linecap="round" />
</g>
</g>
</g>
</svg>